<?xml version="1.0" encoding="utf-8"?>
<!-- Generator: Adobe Illustrator 16.0.0, SVG Export Plug-In . SVG Version: 6.00 Build 0)  -->
<!DOCTYPE svg PUBLIC "-//W3C//DTD SVG 1.1//EN" "http://www.w3.org/Graphics/SVG/1.1/DTD/svg11.dtd">
<svg version="1.1" id="Layer_1" xmlns="http://www.w3.org/2000/svg" xmlns:xlink="http://www.w3.org/1999/xlink" x="0px" y="0px"
	 width="574.307px" height="202.348px" viewBox="0 0 574.307 202.348" enable-background="new 0 0 574.307 202.348"
	 xml:space="preserve">
<path fill="#FFFFFF" d="M1.03,61.58v-7.225l57.355-7.099h5.62v81.67c0,22.254-4.164,31.197-12.274,40.555
	c-9.982,11.025-33.169,24.73-46.688,32.428l-3.327-3.742l21.938-27.936c6.659-10.813,6.86-16.762,6.86-33.189v-70.62L1.03,61.58z"/>
<path fill="#FFFFFF" d="M269.323,117.742c-6.858,2.283-14.351,3.326-21.837,3.326c-27.039,0-46.798-13.104-46.798-35.564
	c0-10.397,6.204-22.026,13.69-27.021l12.935-8.333c5.198-1.664,11.021-2.914,18.932-2.914c27.449,0,47.626,14.354,47.626,38.688
	c0,14.973-8.317,24.539-19.764,29.738 M246.24,113.582c10.813,0,16.014-14.144,16.014-30.99c0-16.641-3.952-27.455-14.561-27.455
	c-10.814,0-15.812,14.146-15.812,30.366C231.885,102.974,235.63,113.582,246.24,113.582"/>
<path fill="#FFFFFF" d="M536.49,137.289c0,7.068,0.619,9.771,7.898,10.191l4.995,0.203v7.281l-40.768,7.279h-6.031l0.625-19.965
	c-8.11,9.563-19.138,19.965-36.606,19.965c-18.506,0-30.778-10.605-30.778-34.316V74.051c0-6.449-1.457-10.192-8.94-11.858
	l-3.12-0.623V54.5l40.972-7.271h5.616l-1.039,25.581v51.376c0,11.645,4.365,18.506,15.184,18.506c7.278,0,12.479-2.699,18.719-6.027
	v-62.58c0-6.447-1.456-10.188-8.941-11.854l-3.121-0.627v-7.066l40.769-7.307h5.819l-1.245,25.168v64.893L536.49,137.289
	L536.49,137.289z"/>
<path fill="#14ABA6" d="M28.226,18.324c0-9.564,7.279-17.889,18.51-17.889c11.235,0,18.724,8.322,18.724,17.889
	c0,9.565-7.486,17.677-18.724,17.677C35.505,36,28.226,27.892,28.226,18.324"/>
<path fill="#FFFFFF" d="M183.35,145.09c-1.866,0.824-4.554,1.65-7.646,1.65c-5.193,0-6.236-4.365-6.236-10.408V81.226
	c0-25.793-16.014-35.146-43.674-35.146c-24.125,0-42.849,8.733-42.849,26.823c0,7.027,3.892,11.788,9.648,13.687l19.876-3.541
	c-1.11-4.442-1.654-8.547-1.654-12.646c0-9.977,3.741-17.047,12.692-17.047c9.559,0,12.886,7.486,12.886,18.297v19.354
	l-32.233,11.428c-15.182,5.621-27.871,12.898-27.871,31c0,17.256,11.646,27.449,28.913,27.449c14.972,0,25.368-8.738,31.82-17.477
	c2.707,11.234,10.606,17.896,22.25,17.896c10.62,0,18.825-4.014,25.034-10.852L183.35,145.09z M136.395,137.789
	c-4.573,3.131-7.896,4.998-12.679,4.998c-10.821,0-15.399-7.689-15.399-18.514c0-11.854,5.207-16.016,13.313-19.342l14.765-5.823
	V137.789z"/>
<path fill="#FFFFFF" d="M307.381,176.123c0,16.639,19.544,25.785,51.164,25.785c35.973,0,61.973-14.768,61.973-41.182
	c0-18.719-12.271-25.096-38.271-25.096h-43.882c-4.37,0-6.863-2.707-6.863-6.66c0-4.164,3.114-8.117,6.656-11.443l-4.775-2.072
	c-10.409,6.029-19.976,14.354-19.976,27.238c0,8.736,3.908,13.271,12.369,15.121C316.216,160.109,307.381,165.511,307.381,176.123
	 M327.555,171.551c0-4.162,0.827-7.703,2.908-9.984h52.402c9.164,0,14.15,2.91,14.15,10.813c0,14.766-17.68,20.59-37.444,20.59
	C340.031,192.969,327.555,184.859,327.555,171.551"/>
<path fill="#FFFFFF" d="M282.414,157.818c8.462-1.85,12.368-6.389,12.368-15.123c0-12.887-9.563-21.211-19.968-27.238l-4.781,2.076
	c3.542,3.326,6.656,7.279,6.656,11.438c0,3.953-2.496,6.662-6.858,6.662H225.94c-26,0-38.265,6.377-38.265,25.098
	c0,26.414,26,41.18,61.973,41.18c31.62,0,51.168-9.146,51.168-25.783C300.817,165.51,291.978,160.109,282.414,157.818
	 M248.618,192.967c-19.767,0-37.442-5.822-37.442-20.588c0-7.902,4.986-10.813,14.149-10.813h52.397
	c2.087,2.281,2.91,5.824,2.91,9.982C280.635,184.861,268.162,192.967,248.618,192.967"/>
<path fill="#FFFFFF" d="M227.312,50.149c-16.667,7.126-27.479-4.658-29.345-5.487l-2.756,6.434
	c1.654,4.046,11.942,14.796,25.883,11.686"/>
<path fill="#FFFFFF" d="M334.007,115.662c-11.438-5.197-19.757-14.769-19.757-29.742c0-24.332,20.174-38.687,47.619-38.687
	c7.908,0,13.73,1.248,18.936,2.914l12.935,8.336c7.486,4.99,13.688,16.621,13.688,27.021c0,22.464-19.763,35.563-46.799,35.563
	c-7.486,0-14.976-1.041-21.841-3.326 M376.228,85.503c0-16.222-4.99-30.364-15.808-30.364c-10.606,0-14.562,10.813-14.562,27.455
	c0,16.845,5.202,30.988,16.011,30.988C372.483,113.582,376.228,102.976,376.228,85.503"/>
<path fill="#FFFFFF" d="M387.023,62.778c13.933,3.111,24.224-7.639,25.879-11.685l-2.756-6.434
	c-1.871,0.825-12.679,12.613-29.341,5.487"/>
</svg>
